<svg width="60" height="60" viewBox="0 0 60 60" fill="none" xmlns="http://www.w3.org/2000/svg">
<circle cx="30" cy="30" r="30" fill="#2A2A63"/>
<path d="M22.5 40.5H37.5V43.5H22.5V40.5Z" fill="#2A2A63" stroke="#FFA1A9"/>
<rect x="22.5" y="18.5" width="15" height="19" rx="7.5" fill="#2A2A63" stroke="#FFA1A9"/>
<rect x="24.5" y="20.5" width="11" height="15" rx="5.5" fill="#2A2A63" stroke="#FFA1A9"/>
<rect x="26.5" y="22.5" width="7" height="11" rx="3.5" fill="#2A2A63" stroke="#FFA1A9"/>
<path d="M28.5 37.5H31.5V40.5H28.5V37.5Z" fill="#2A2A63" stroke="#FFA1A9"/>
<rect x="22" y="18" width="16" height="8" fill="#2A2A63"/>
<rect x="20.5" y="24.5" width="19" height="2" rx="1" fill="#2A2A63" stroke="#FFA1A9"/>
<rect x="26.5" y="15.5" width="7" height="18" rx="3.5" fill="#2A2A63" stroke="#FFA1A9"/>
<path d="M26.5 28.5H33.5V30.5H26.5V28.5Z" fill="#2A2A63" stroke="#FFA1A9"/>
<circle cx="28.5" cy="18.5" r="0.5" fill="#FFA1A9"/>
<circle cx="30.5" cy="17.5" r="0.5" fill="#FFA1A9"/>
<circle cx="28.5" cy="20.5" r="0.5" fill="#FFA1A9"/>
<circle cx="30.5" cy="21.5" r="0.5" fill="#FFA1A9"/>
<circle cx="29.5" cy="19.5" r="0.5" fill="#FFA1A9"/>
<circle cx="31.5" cy="18.5" r="0.5" fill="#FFA1A9"/>
<circle cx="31.5" cy="20.5" r="0.5" fill="#FFA1A9"/>
</svg>
