<svg width="60" height="60" viewBox="0 0 60 60" fill="none" xmlns="http://www.w3.org/2000/svg">
<circle cx="30" cy="30" r="29" stroke="#2A2A63" stroke-width="2"/>
<path d="M34.8499 26.8907L42.3135 35.7357C46.1539 40.2869 42.9187 47.25 36.9636 47.25H22.0364C16.0814 47.25 12.8461 40.2869 16.6865 35.7357L24.1501 26.8907C26.9468 23.5764 32.0532 23.5764 34.8499 26.8907Z" stroke="#2A2A63" stroke-width="2"/>
<path d="M29.5 31C31.9564 31 34.104 29.6701 35.6033 27.6711C37.1024 25.6723 38 22.9569 38 20C38 17.0431 37.1024 14.3277 35.6033 12.3289C34.104 10.3299 31.9564 9 29.5 9C27.0436 9 24.896 10.3299 23.3967 12.3289C21.8976 14.3277 21 17.0431 21 20C21 22.9569 21.8976 25.6723 23.3967 27.6711C24.896 29.6701 27.0436 31 29.5 31Z" stroke="#FFA1A9" stroke-width="2"/>
<path d="M36 20C36 22.566 35.2187 24.8505 34.0033 26.4711C32.7881 28.0913 31.1857 29 29.5 29C27.8143 29 26.2119 28.0913 24.9967 26.4711C23.7813 24.8505 23 22.566 23 20C23 17.434 23.7813 15.1495 24.9967 13.5289C26.2119 11.9087 27.8143 11 29.5 11C31.1857 11 32.7881 11.9087 34.0033 13.5289C35.2187 15.1495 36 17.434 36 20Z" fill="#FFA1A9" stroke="#2A2A63" stroke-width="2"/>
</svg>
